<svg xmlns="http://www.w3.org/2000/svg" viewBox="0 0 400 300" fill="none">
  <rect width="400" height="300" rx="8" fill="#FDF4FF"/>
  <!-- Skull/face outline -->
  <path d="M200 40 Q130 50 110 100 Q100 150 110 180 Q120 210 150 230 Q180 250 200 260 Q220 250 250 230 Q280 210 290 180 Q300 150 290 100 Q270 50 200 40Z" fill="none" stroke="#D4A574" stroke-width="1" stroke-dasharray="4 2" opacity="0.4"/>
  <!-- Orbital area -->
  <ellipse cx="165" cy="120" rx="30" ry="20" fill="none" stroke="#D4A574" stroke-width="0.8" opacity="0.3"/>
  <ellipse cx="235" cy="120" rx="30" ry="20" fill="none" stroke="#D4A574" stroke-width="0.8" opacity="0.3"/>
  <!-- Mandible -->
  <path d="M140 200 Q150 230 200 240 Q250 230 260 200" fill="none" stroke="#D4A574" stroke-width="1" opacity="0.3"/>
  <!-- CMF mini plates -->
  <!-- Orbital plate -->
  <rect x="145" y="140" width="35" height="4" rx="2" fill="#94A3B8" stroke="#64748B" stroke-width="0.8"/>
  <circle cx="152" cy="142" r="1.5" fill="#E2E8F0" stroke="#64748B" stroke-width="0.5"/>
  <circle cx="160" cy="142" r="1.5" fill="#E2E8F0" stroke="#64748B" stroke-width="0.5"/>
  <circle cx="168" cy="142" r="1.5" fill="#E2E8F0" stroke="#64748B" stroke-width="0.5"/>
  <circle cx="175" cy="142" r="1.5" fill="#E2E8F0" stroke="#64748B" stroke-width="0.5"/>
  <!-- Mandibular recon plate -->
  <path d="M150 205 Q155 218 175 225 Q200 230 225 225 Q245 218 250 205" fill="none" stroke="#64748B" stroke-width="4" stroke-linecap="round"/>
  <circle cx="155" cy="208" r="2.5" fill="#E2E8F0" stroke="#64748B" stroke-width="0.8"/>
  <circle cx="168" cy="218" r="2.5" fill="#E2E8F0" stroke="#64748B" stroke-width="0.8"/>
  <circle cx="185" cy="225" r="2.5" fill="#E2E8F0" stroke="#64748B" stroke-width="0.8"/>
  <circle cx="215" cy="225" r="2.5" fill="#E2E8F0" stroke="#64748B" stroke-width="0.8"/>
  <circle cx="232" cy="218" r="2.5" fill="#E2E8F0" stroke="#64748B" stroke-width="0.8"/>
  <circle cx="245" cy="208" r="2.5" fill="#E2E8F0" stroke="#64748B" stroke-width="0.8"/>
  <!-- Frontal plate (Y-shape) -->
  <line x1="200" y1="60" x2="200" y2="85" stroke="#64748B" stroke-width="3.5" stroke-linecap="round"/>
  <line x1="200" y1="85" x2="185" y2="100" stroke="#64748B" stroke-width="3.5" stroke-linecap="round"/>
  <line x1="200" y1="85" x2="215" y2="100" stroke="#64748B" stroke-width="3.5" stroke-linecap="round"/>
  <circle cx="200" cy="65" r="2" fill="#E2E8F0" stroke="#64748B" stroke-width="0.5"/>
  <circle cx="200" cy="78" r="2" fill="#E2E8F0" stroke="#64748B" stroke-width="0.5"/>
  <circle cx="188" cy="96" r="2" fill="#E2E8F0" stroke="#64748B" stroke-width="0.5"/>
  <circle cx="212" cy="96" r="2" fill="#E2E8F0" stroke="#64748B" stroke-width="0.5"/>
  <!-- Orbital mesh -->
  <path d="M220 130 Q240 125 255 130 Q260 140 255 148 Q240 152 225 148 Q218 140 220 130Z" fill="#B0BEC5" stroke="#64748B" stroke-width="0.8" opacity="0.6"/>
  <g stroke="#9CA3AF" stroke-width="0.3" opacity="0.5">
    <line x1="222" y1="133" x2="253" y2="133"/><line x1="220" y1="138" x2="258" y2="138"/>
    <line x1="221" y1="143" x2="256" y2="143"/><line x1="224" y1="148" x2="252" y2="148"/>
    <line x1="230" y1="128" x2="230" y2="150"/><line x1="238" y1="126" x2="238" y2="152"/>
    <line x1="246" y1="128" x2="246" y2="150"/>
  </g>
  <!-- Labels -->
  <text x="303" y="68" font-family="system-ui,sans-serif" font-size="8" fill="#64748B">Y-Plate</text>
  <line x1="215" y1="75" x2="298" y2="68" stroke="#9CA3AF" stroke-width="0.5"/>
  <text x="303" y="142" font-family="system-ui,sans-serif" font-size="8" fill="#64748B">Orbital Mesh</text>
  <text x="303" y="215" font-family="system-ui,sans-serif" font-size="8" fill="#64748B">Recon Plate</text>
  <line x1="255" y1="210" x2="298" y2="213" stroke="#9CA3AF" stroke-width="0.5"/>
  <text x="200" y="285" text-anchor="middle" font-family="system-ui,sans-serif" font-size="12" font-weight="600" fill="#475569">Craniomaxillofacial Implants</text>
</svg>