<svg xmlns="http://www.w3.org/2000/svg" viewBox="0 0 400 300" fill="none">
  <rect width="400" height="300" rx="8" fill="#FFFBEB"/>
  <!-- Femoral component -->
  <path d="M130 60 Q130 40 160 35 L240 35 Q270 40 270 60 L275 120 Q275 150 250 160 Q200 175 150 160 Q125 150 125 120 Z" fill="url(#femoralGrad)" stroke="#64748B" stroke-width="1.5"/>
  <!-- Condylar articulating surface -->
  <path d="M140 140 Q160 165 200 170 Q240 165 260 140" fill="none" stroke="#475569" stroke-width="1"/>
  <path d="M145 120 Q160 145 200 150 Q240 145 255 120" fill="none" stroke="#9CA3AF" stroke-width="0.5"/>
  <!-- Tibial component (baseplate) -->
  <rect x="130" y="185" width="140" height="14" rx="3" fill="url(#tibialGrad)" stroke="#64748B" stroke-width="1.5"/>
  <!-- Poly insert -->
  <rect x="135" y="175" width="130" height="12" rx="4" fill="#E8E8E8" stroke="#9CA3AF" stroke-width="1"/>
  <path d="M145 175 Q165 168 200 168 Q235 168 255 175" fill="#F5F5F5" stroke="#9CA3AF" stroke-width="0.5"/>
  <!-- Tibial stem -->
  <rect x="190" y="199" width="20" height="60" rx="3" fill="url(#tibStemGrad)" stroke="#64748B" stroke-width="1"/>
  <!-- Tibia outline -->
  <path d="M125 200 L130 270 Q140 285 200 285 Q260 285 270 270 L275 200" fill="none" stroke="#D4A574" stroke-width="1" stroke-dasharray="4 2" opacity="0.5"/>
  <!-- Labels -->
  <line x1="275" y1="80" x2="310" y2="70" stroke="#9CA3AF" stroke-width="0.5"/>
  <text x="315" y="73" font-family="system-ui,sans-serif" font-size="8" fill="#64748B">Femoral Component</text>
  <line x1="270" y1="178" x2="310" y2="178" stroke="#9CA3AF" stroke-width="0.5"/>
  <text x="315" y="175" font-family="system-ui,sans-serif" font-size="8" fill="#64748B">PE Insert</text>
  <line x1="270" y1="192" x2="310" y2="192" stroke="#9CA3AF" stroke-width="0.5"/>
  <text x="315" y="195" font-family="system-ui,sans-serif" font-size="8" fill="#64748B">Tibial Baseplate</text>
  <text x="200" y="294" text-anchor="middle" font-family="system-ui,sans-serif" font-size="11" fill="#94A3B8">CoCrMo / UHMWPE / Titanium</text>
  <defs>
    <linearGradient id="femoralGrad" x1="125" y1="0" x2="275" y2="0"><stop offset="0%" stop-color="#B0BEC5"/><stop offset="50%" stop-color="#E0E0E0"/><stop offset="100%" stop-color="#90A4AE"/></linearGradient>
    <linearGradient id="tibialGrad" x1="130" y1="0" x2="270" y2="0"><stop offset="0%" stop-color="#90A4AE"/><stop offset="50%" stop-color="#CFD8DC"/><stop offset="100%" stop-color="#90A4AE"/></linearGradient>
    <linearGradient id="tibStemGrad" x1="190" y1="0" x2="210" y2="0"><stop offset="0%" stop-color="#B0BEC5"/><stop offset="100%" stop-color="#90A4AE"/></linearGradient>
  </defs>
</svg>